<?xml version="1.0" encoding="UTF-8" standalone="no"?><!DOCTYPE svg PUBLIC "-//W3C//DTD SVG 1.1//EN" "http://www.w3.org/Graphics/SVG/1.1/DTD/svg11.dtd"><svg width="100%" height="100%" viewBox="0 0 8000 4500" version="1.1" xmlns="http://www.w3.org/2000/svg" xmlns:xlink="http://www.w3.org/1999/xlink" xml:space="preserve" xmlns:serif="http://www.serif.com/" style="fill-rule:evenodd;clip-rule:evenodd;stroke-linecap:round;stroke-linejoin:round;stroke-miterlimit:1.5;"><g><text x="3743.92px" y="1304.39px" style="font-family:'IBMPlexSans', 'IBM Plex Sans', sans-serif;font-size:100px;">calculat<tspan x="4097.22px 4152.12px 4210.72px " y="1304.39px 1304.39px 1304.39px ">ePo</tspan>se</text><g transform="matrix(4.16667,0,0,4.16667,-767.393,248.287)"><text x="597.783px" y="241.532px" style="font-family:'IBMPlexSans', 'IBM Plex Sans', sans-serif;font-size:24px;">Goal P<tspan x="666.975px " y="241.532px ">o</tspan>int</text><text x="567.507px" y="265.532px" style="font-family:'IBMPlexSans', 'IBM Plex Sans', sans-serif;font-size:24px;">(<tspan x="575.787px 588.315px " y="265.532px 265.532px ">go</tspan>al<tspan x="621.459px 635.499px " y="265.532px 265.532px ">_x</tspan>, g<tspan x="672.387px " y="265.532px ">o</tspan>al<tspan x="705.531px 718.731px " y="265.532px 265.532px ">_y</tspan>)</text></g><text x="5993.15px" y="1304.39px" style="font-family:'IBMPlexSans', 'IBM Plex Sans', sans-serif;font-size:100px;">twis<tspan x="6178.05px " y="1304.39px ">t</tspan></text><text x="5885px" y="3492.81px" style="font-family:'IBMPlexSans', 'IBM Plex Sans', sans-serif;font-size:100px;">mo<tspan x="6027.5px 6075.9px 6128.8px 6155px " y="3492.81px 3492.81px 3492.81px 3492.81px ">ve.c</tspan>pp</text><g transform="matrix(4.16667,0,0,4.16667,2693.35,1275.89)"><text x="581.183px" y="241.532px" style="font-family:'IBMPlexSans', 'IBM Plex Sans', sans-serif;font-size:24px;">PID</text><text x="547.583px" y="265.532px" style="font-family:'IBMPlexSans', 'IBM Plex Sans', sans-serif;font-size:24px;">Contr<tspan x="606.671px 620.111px 626.519px " y="265.532px 265.532px 265.532px ">oll</tspan>er</text></g><text x="3793.42px" y="675.074px" style="font-family:'IBMPlexSans', 'IBM Plex Sans', sans-serif;font-size:100px;fill:#0009ff;">R<tspan x="3855.92px " y="675.074px ">o</tspan>bot Stat<tspan x="4265.92px " y="675.074px ">e</tspan></text><text x="5946.85px" y="722.155px" style="font-family:'IBMPlexSans', 'IBM Plex Sans', sans-serif;font-size:100px;fill:#0009ff;">Output</text><text x="3656.01px" y="3653.6px" style="font-family:'IBMPlexSans', 'IBM Plex Sans', sans-serif;font-size:100px;fill:#0009ff;">Enc<tspan x="3820.81px " y="3653.6px ">o</tspan>der F<tspan x="4103.41px " y="3653.6px ">e</tspan>edback</text><path d="M5400.35,1239.97l75,37.5l-75,37.5l0,-75Z" style="fill:#ae9c71;"/><path d="M5198.8,2007.79l0,-730.321l216.556,0" style="fill:none;stroke:#ae9c71;stroke-width:12.5px;"/><text x="1699.32px" y="675.074px" style="font-family:'IBMPlexSans', 'IBM Plex Sans', sans-serif;font-size:100px;fill:#0009ff;">User Input</text><path d="M4108.31,1920.75l-37.5,75l-37.5,-75l75,0Z" style="fill:#ae9c71;"/><path d="M4070.81,1710.51l0,225.244" style="fill:none;stroke:#ae9c71;stroke-width:12.5px;"/><rect x="4913.07" y="2019.34" width="571.456" height="571.456" style="fill:none;stroke:#141414;stroke-width:20.83px;"/><text x="3786.12px" y="2331.99px" style="font-family:'IBMPlexSans', 'IBM Plex Sans', sans-serif;font-size:100px;">pose != g<tspan x="4191.52px " y="2331.99px ">o</tspan>al</text><path d="M3363.5,2267.57l75,37.5l-75,37.5l0,-75Z" style="fill:#ae9c71;"/><path d="M1938.52,1714.67l0,590.4l1439.98,0" style="fill:none;stroke:#ae9c71;stroke-width:12.5px;"/><path d="M4828.53,2267.57l75,37.5l-75,37.5l0,-75Z" style="fill:#ae9c71;"/><path d="M4693.6,2305.07l149.937,0" style="fill:none;stroke:#ae9c71;stroke-width:12.5px;"/><path d="M6107.85,2946.11l-37.5,75l-37.5,-75l75,0Z" style="fill:#ae9c71;"/><path d="M6070.35,1710.51l0,1250.61" style="fill:none;stroke:#ae9c71;stroke-width:12.5px;"/><path d="M3354.32,1239.97l75,37.5l-75,37.5l0,-75Z" style="fill:#ae9c71;"/><path d="M5484.53,3465.89l-2507.91,0l0,-1124.4c-39.765,0 -39.765,-67.684 0,-67.684l0,-996.338l392.712,0" style="fill:none;stroke:#ae9c71;stroke-width:12.5px;"/><path d="M2515.47,1710.51l114.242,-866.075l-1237.25,0l-114.241,866.075l1237.25,0Z" style="fill:none;stroke:#141414;stroke-width:20.83px;"/><path d="M4675.75,1710.51l0,-866.075l-1237.25,0l0,866.075l1237.25,0Z" style="fill:none;stroke:#141414;stroke-width:20.83px;"/><path d="M6721.78,1710.51l0,-866.075l-1237.25,0l0,866.075l1237.25,0Z" style="fill:none;stroke:#141414;stroke-width:20.83px;"/><path d="M6721.78,3898.93l0,-866.075l-1237.25,0l0,866.075l1237.25,0Z" style="fill:none;stroke:#141414;stroke-width:20.83px;"/><path d="M4070.81,2006.77l622.781,298.307l-622.781,298.307l-622.782,-298.307l622.782,-298.307Z" style="fill:none;stroke:#000;stroke-width:20.83px;"/></g><text x="642.297px" y="4244.42px" style="font-family:'IBMPlexSans', 'IBM Plex Sans', sans-serif;font-size:125px;">Cerusbot</text><path d="M252.092,4155.68c-6.897,-5.151 -13.279,-10.931 -18.486,-17.575c-4.731,-6.037 -8.081,-13.045 -7.259,-21.307c0.867,-8.711 3.59,-17.196 6.389,-25.606c7.985,-23.983 18.128,-47.229 28.808,-70.02c0,0 1.483,-2.507 3.56,-2.914c0.942,-0.184 1.192,-0.077 1.509,-0.056c2.213,0.383 3.913,2.094 4.253,4.344l8.214,83.634l34.419,7.313l3.275,-5.135l1.376,-1.413c2.63,-1.078 5.581,-1.44 8.489,-1.95c20.17,-3.534 40.417,-7.13 61.003,-7.444c0.569,-0.007 1.139,-0.011 1.708,-0.01c22.962,0.101 45.789,4.385 68.469,8.558l2.349,0.845l1.378,1.414l3.327,5.216l34.797,-7.394l8.214,-83.634c0,0 0.145,-1.1 0.605,-1.914c0.907,-1.604 2.677,-2.518 4.657,-2.445c2.52,0.359 2.813,0.631 3.957,2.766c12.595,26.752 24.88,53.861 32.531,82.115c2.156,7.962 4.365,16.484 1.754,24.124c-3.996,11.692 -14.314,20.38 -24.411,28.08c-0.205,0.156 -0.411,0.312 -0.616,0.467l38.133,16.948c1.536,1.067 2.847,2.575 2.881,4.34c0.035,1.813 -1.185,3.299 -2.71,4.449l-46.698,22.959c-1.602,0.467 -1.619,0.468 -3.284,0.361l-28.868,-6.998l-30.162,43.547l-0.74,29.426l0,31.46l-0.301,1.684c-0.863,1.466 -0.875,1.48 -2.192,2.556l-26.975,15.007l-6.101,6.461l-1.607,1.124l-1.921,0.396l-53.312,0l-1.921,-0.396l-1.607,-1.124l-6.101,-6.461l-26.975,-15.007c-0.442,-0.36 -0.954,-0.649 -1.325,-1.082c-1.016,-1.185 -0.906,-1.694 -1.168,-3.158l0,-31.46l-0.741,-29.426l-30.161,-43.547l-28.868,6.998l-1.674,0.108l-1.61,-0.469l-46.698,-22.959c-0.98,-0.739 -1.981,-1.527 -2.403,-2.653c-0.653,-1.744 -0.187,-3.805 1.077,-5.096c0.425,-0.434 0.998,-0.693 1.496,-1.04l38.267,-17.007Zm66.96,-32.847l-25.617,40.164c-0.365,0.403 -0.668,0.874 -1.096,1.209c-1.17,0.918 -1.643,0.81 -3.048,1.034l-33.966,-0.377l-28.08,12.48l35.813,17.608l30.397,-7.369l1.931,-0.072l1.806,0.687l1.395,1.338l32.882,47.476l0.624,1.257l0.238,1.383l0.78,30.998l0,28.729l25.136,13.984l1.169,0.909l5.179,5.484l49.13,0l5.179,-5.484l1.169,-0.909l25.136,-13.984l0,-28.729l0.779,-30.998c0.238,-1.378 0.241,-1.388 0.862,-2.64l32.883,-47.476l1.395,-1.338l1.806,-0.687l1.931,0.072c10.132,2.457 20.265,4.913 30.397,7.369l35.813,-17.608l-28.081,-12.48l-33.965,0.377l-1.612,-0.257c-1.428,-0.773 -1.441,-0.782 -2.533,-1.986l-30.384,-47.639c-25.835,-4.664 -52.153,-9.636 -77.765,-7.513c-17.763,1.473 -35.385,4.334 -52.914,7.511l-2.902,4.55c-0.241,1.151 -0.933,2.198 -1.867,2.927Zm96.936,117.771c1.833,0.293 3.274,1.605 4.764,2.77c7.757,6.058 15.648,12.758 19.824,21.087c4.791,9.553 -2.46,21.486 -9.579,31.738c-3.039,4.376 -6.245,8.637 -9.628,12.753c0,0 -2.344,2.117 -4.747,1.742l-27.462,-5.454l-27.462,5.454c0,0 -3.114,0.08 -4.684,-1.665c-7.334,-8.862 -14.338,-18.145 -18.813,-28.336c-2.179,-4.963 -3.063,-10.619 -0.779,-15.564c4.522,-9.794 13.856,-17.191 22.543,-23.576c0,0 1.672,-1.059 3.196,-0.975c0.369,0.021 0.459,0.05 0.822,0.117l25.177,5.805l25.177,-5.805c0,0 0.519,-0.174 1.651,-0.091Zm-25.883,54.929l25.528,5.071c5.771,-7.271 11.478,-14.826 15.33,-23.212c1.301,-2.832 2.343,-5.885 0.836,-8.782c-3.73,-7.169 -10.587,-12.582 -17.329,-17.829c0,0 -24.22,5.427 -24.22,5.427c0,0 -0.778,0.268 -2.18,0l-24.063,-5.548c-6.945,5.368 -14.462,11.028 -17.859,18.724c-1.678,3.801 1.155,8.344 3.67,12.722c3.739,6.51 8.202,12.589 12.859,18.485c0,0 25.538,-5.058 25.538,-5.058c0,0 0.73,-0.183 1.89,0Zm22.175,-34.434c8.698,0.169 15.768,10.679 11.196,19.091c-3.701,6.812 -14.12,8.797 -20.055,3.402c-7.362,-6.694 -3.507,-22.259 8.526,-22.493c0.167,-0.001 0.166,-0.001 0.333,0Zm-46.059,0c8.557,0.166 15.471,10.264 11.482,18.534c-3.499,7.253 -14.524,9.507 -20.566,3.749c-7.047,-6.716 -3.288,-21.904 8.585,-22.279c0.167,-0.004 0.333,-0.005 0.499,-0.004Zm45.85,9.704c-2.812,0.055 -4.46,4.818 -1.208,6.194c0.395,0.167 0.822,0.251 1.25,0.251c1.96,0 3.641,-2.113 3.111,-4.068c-0.374,-1.382 -1.643,-2.386 -3.153,-2.377Zm-46.058,0c-2.81,0.055 -4.461,4.817 -1.209,6.194c0.395,0.167 0.822,0.251 1.25,0.251c1.932,0 3.604,-2.057 3.132,-3.991c-0.347,-1.419 -1.676,-2.463 -3.173,-2.454Zm-29.201,-94.245c0.738,0.06 0.94,0.129 1.334,0.268c4.911,1.733 2.3,11.648 10.28,11.786c4.603,0.079 8.696,-3.515 10.475,-8.099c0,0 4.385,-5.146 7.936,-1.546c2.044,2.072 1.206,5.499 -0.562,8.534c-4.905,8.423 -16.071,13.87 -25.35,9.019c-5.204,-2.721 -8.491,-8.526 -9.211,-14.538c0,0 -0.146,-1.626 0.567,-2.92c0.855,-1.553 2.22,-2.486 4.304,-2.512c0.075,0.002 0.151,0.005 0.227,0.008Zm104.719,-0.005c3.374,0.2 5.266,3.529 4.184,7.9c-2.169,8.76 -10.741,15.443 -20.388,13.47c-6.981,-1.428 -12.861,-7.194 -15.362,-13.837c0,0 -0.697,-3.649 1.421,-5.427c2.523,-2.119 6.401,-0.684 7.952,2.696c2.127,4.527 6.811,8.544 12.122,6.97c3.104,-0.92 4.696,-4.552 5.102,-7.663c0,0 1.198,-3.99 4.742,-4.112c0.076,0.001 0.152,0.002 0.227,0.003Zm68.428,-21.251c10.192,-6.417 20.229,-13.847 27.547,-23.184c3.566,-4.55 5.918,-9.58 5.066,-15.822c-1.827,-13.39 -6.983,-26.235 -11.913,-39.067c-4.536,-11.81 -9.459,-23.467 -14.568,-35.039l-0.315,-0.712l-6.795,69.185c0,0 -0.936,3.498 -3.821,4.272l-34.715,7.376l21.172,33.195l18.342,-0.204Zm-202.033,-33.072l-34.337,-7.295c-2.857,-0.766 -3.461,-1.902 -3.82,-4.272l-6.795,-69.185c-10.121,22.868 -20.761,45.854 -25.947,70.075c-1.35,6.304 -1.538,12.516 2.927,18.835c7.299,10.33 17.966,18.187 28.837,24.919l17.912,0.199l21.223,-33.276Z"/></svg>